General.

Complete Name                    : Jonny English Reborn[2011]ENG[BRRip]Xvid-[TFRG]
Format                           : .avi
Format profile                   : Base Media / Version 2
Codec ID                         : mp42
File size                        : 802 MiB
Duration                         : 1h 41mn
Overall bit rate                 : 1 106 Kbps
IMDb Link                        : http://www.imdb.com/title/tt1634122/
IMDb Rating                      : 6.4/10
Encoded date                     : UTC 2012-01-20 14:43:33
Tagged date                      : UTC 2012-01-20 15:13:44


Video.

ID                               : 1
Format                           : AVC
Format/Info                      : Advanced Video Codec
Format profile                   : Main@L2.1
Format settings, CABAC           : Yes
Format settings, ReFrames        : 4 frames
Format settings, GOP             : M=3, N=16
Codec ID                         : avc1
Codec ID/Info                    : Advanced Video Coding
Duration                         : 1h 41mn
Bit rate mode                    : Variable
Bit rate                         : 932 Kbps
Width                            : 640 pixels
Height                           : 272 pixels
Display aspect ratio             : 2.35:1
Frame rate mode                  : Variable
Frame rate                       : 23.976 fps
Minimum frame rate               : 23.974 fps
Maximum frame rate               : 23.981 fps
Color space                      : YUV
Chroma subsampling               : 4:2:0
Bit depth                        : 8 bits
Scan type                        : Progressive
Bits/(Pixel*Frame)               : 0.223
Stream size                      : 682 MiB (85%)
Writing library                  : x264 core 112
Encoded date                     : UTC 2012-01-20 14:43:33
Tagged date                      : UTC 2012-01-20 15:13:44


Audio.

ID                               : 2
Format                           : AAC
Format/Info                      : Advanced Audio Codec
Format version                   : Version 4
Format profile                   : LC
Format settings, SBR             : No
Codec ID                         : 40
Duration                         : 1h 41mn
Bit rate mode                    : Variable
Bit rate                         : 160 Kbps
Maximum bit rate                 : 185 Kbps
Channel(s)                       : 2 channels
Channel positions                : Front: L R
Sampling rate                    : 48.0 KHz
Stream size                      : 116 MiB (14%)
Encoded date                     : UTC 2012-01-20 14:43:33


SCREEN.


****************************************************************

A big thanks to all the sites out there who care and share and
who make it possible for you to download this torrent for free.

Greetz to:- Westy, Ripwyn, mustang, noir, Blackjesus, MXMG, The Stig,
Ratcat and all the other outstanding members of our community of 
file sharers and a special mention to our friends at 1337x.

****************************************************************